<?xml version="1.0" encoding="UTF-8" standalone="no"?>
<!DOCTYPE svg PUBLIC "-//W3C//DTD SVG 1.1//EN" "http://www.w3.org/Graphics/SVG/1.1/DTD/svg11.dtd">
<svg width="100%" height="100%" viewBox="0 0 512 512" version="1.1" xmlns="http://www.w3.org/2000/svg" xmlns:xlink="http://www.w3.org/1999/xlink" xml:space="preserve" xmlns:serif="http://www.serif.com/" style="fill-rule:evenodd;clip-rule:evenodd;stroke-linejoin:round;stroke-miterlimit:2;">
    <rect id="ArtBoard1" x="0" y="0" width="512" height="512" style="fill:none;"/>
    <g id="ArtBoard11" serif:id="ArtBoard1">
        <g id="Logo" transform="matrix(0.567689,0,0,0.567689,-60.2243,-10.0359)">
            <g id="kleiner-Playbutton" serif:id="kleiner Playbutton" transform="matrix(1,0,0,1,63,0)">
                <g id="playbuttons">
                    <g id="kleiner-Playbutton1" serif:id="kleiner Playbutton">
                        <g transform="matrix(-62.6264,52.5498,52.5498,62.6264,763.747,665.804)">
                            <path d="M0.224,0.01L0.752,-0.083C0.85,-0.1 0.892,-0.216 0.829,-0.292L0.962,-0.134C1.043,-0.037 0.989,0.111 0.865,0.133L0.192,0.251C0.068,0.273 -0.033,0.152 0.01,0.034L0.081,-0.16C0.047,-0.067 0.127,0.027 0.224,0.01Z" style="fill-rule:nonzero;"/>
                        </g>
                        <g transform="matrix(0,61.3439,61.3439,0,736.272,638.747)">
                            <path d="M0.218,-0.648L0.494,-0.648C0.362,-0.648 0.28,-0.506 0.346,-0.391L0.703,0.228C0.769,0.342 0.934,0.342 1,0.228L0.862,0.467C0.778,0.612 0.568,0.612 0.485,0.467L0.03,-0.321C0.009,-0.356 -0,-0.394 -0,-0.43C-0,-0.544 0.091,-0.648 0.218,-0.648Z" style="fill-rule:nonzero;"/>
                        </g>
                        <g transform="matrix(0,62.8241,62.8241,0,713.853,638.747)">
                            <path d="M0.213,-0.276L0.832,-0.276C0.961,-0.276 1.042,-0.137 0.977,-0.025L0.948,0.025L0.308,0.025C0.18,0.025 0.099,0.165 0.163,0.276L0.029,0.043C0.009,0.009 -0,-0.028 -0,-0.063C-0,-0.174 0.089,-0.276 0.213,-0.276Z" style="fill-rule:nonzero;"/>
                        </g>
                        <g opacity="0.2">
                            <g transform="matrix(1,0,0,1,755.27,699.995)">
                                <path d="M0,-28.65C-0.585,-25.914 -2.253,-23.376 -5.015,-21.782L-14.499,-16.306C0.059,-10.577 -3.487,-2.318 -4.856,0L9.633,-8.365C9.812,-8.469 9.982,-8.58 10.154,-8.69L11.056,-10.253L12.184,-15.864L8.764,-23.59L0,-28.65Z" style="fill-rule:nonzero;"/>
                            </g>
                        </g>
                        <g opacity="0.2">
                            <g transform="matrix(1,0,0,1,763.211,675.582)">
                                <path d="M0,13.638C7.887,7.02 5.652,-5.654 -4.023,-9.176L-8.651,-10.86C-6.533,-6.207 -7.966,-0.249 -12.956,2.632L-18.374,5.76L-16.117,6.581C-8.52,9.346 -6.761,19.294 -12.943,24.498L-12.94,24.496L0,13.638Z" style="fill-rule:nonzero;"/>
                            </g>
                        </g>
                        <g opacity="0.2">
                            <g transform="matrix(1,0,0,1,714.282,665.347)">
                                <path d="M0,-24.701L-5.22,-22.941L-10.014,-16.372L-10.014,-6.444C-7.466,-7.142 -4.621,-6.898 -2.018,-5.395L7.327,0C4.405,-17.996 16.925,-16.331 16.925,-16.331L2.429,-24.701L0,-24.701Z" style="fill-rule:nonzero;"/>
                            </g>
                        </g>
                        <g opacity="0.2">
                            <g transform="matrix(1,0,0,1,712.265,642.834)">
                                <path d="M0,17.118L5.413,20.243L4.997,17.883C3.592,9.915 11.34,3.414 18.943,6.181L3.05,0.397C-6.625,-3.125 -16.484,5.148 -14.696,15.287L-13.84,20.14C-10.871,15.976 -4.992,14.236 0,17.118" style="fill-rule:nonzero;"/>
                            </g>
                        </g>
                        <g opacity="0.2">
                            <g transform="matrix(1,0,0,1,712.265,693.941)">
                                <path d="M0,6.206L3.177,4.372L3.177,-3.899C-10.947,7.629 -15.766,-4.046 -15.766,-4.046L-15.766,-2.897C-15.766,5.195 -7.007,10.252 0,6.206" style="fill-rule:nonzero;"/>
                            </g>
                        </g>
                        <g opacity="0.2">
                            <g transform="matrix(1,0,0,1,696.499,703.539)">
                                <path d="M0,-12.494L0.645,-8.836C2.789,-3.008 9.892,0 15.766,-3.391L18.943,-5.226L18.943,-7.808L17.107,-6.267C10.909,-1.067 1.405,-4.526 0,-12.494" style="fill-rule:nonzero;"/>
                            </g>
                        </g>
                    </g>
                </g>
            </g>
            <g transform="matrix(1,0,0,1,800.621,743.79)">
                <path d="M0,-513.549L-577.213,-513.549C-614.253,-513.549 -644.38,-485.401 -644.38,-450.793L-644.38,-62.729C-644.38,-28.148 -614.253,0 -577.213,0L-177.809,0L-177.809,-21.006L-577.213,-21.006C-601.86,-21.006 -621.897,-39.728 -621.897,-62.729L-621.897,-450.793C-621.897,-473.821 -601.86,-492.543 -577.213,-492.543L0,-492.543C24.619,-492.543 44.656,-473.821 44.656,-450.793L44.656,-156.443L67.139,-156.443L67.139,-450.793C67.139,-485.401 37.012,-513.549 0,-513.549" style="fill-rule:nonzero;"/>
            </g>
            <g transform="matrix(1,0,0,1,935.352,601.841)">
                <path d="M0,156.417C0,164.426 -6.942,170.911 -15.485,170.911L-275.103,170.911C-283.646,170.911 -290.616,164.426 -290.616,156.417L-290.616,0C-290.616,-7.983 -283.646,-14.495 -275.103,-14.495L-15.485,-14.495C-6.942,-14.495 0,-7.983 0,0L0,156.417ZM-15.485,-35.501L-275.103,-35.501C-296.04,-35.501 -313.099,-19.562 -313.099,0L-313.099,156.417C-313.099,176.005 -296.04,191.918 -275.103,191.918L-15.485,191.918C5.452,191.918 22.483,176.005 22.483,156.417L22.483,0C22.483,-19.562 5.452,-35.501 -15.485,-35.501" style="fill-rule:nonzero;"/>
            </g>
        </g>
    </g>
</svg>
